<?xml version="1.0" encoding="iso-8859-1"?>
<!-- Generator: Adobe Illustrator 19.0.0, SVG Export Plug-In . SVG Version: 6.00 Build 0)  -->
<svg xmlns="http://www.w3.org/2000/svg" xmlns:xlink="http://www.w3.org/1999/xlink" version="1.1" id="Layer_1" x="0px" y="0px" viewBox="0 0 512 512" style="enable-background:new 0 0 512 512;" xml:space="preserve" width="512px" height="512px">
<g>
	<g>
		<path d="M468.953,128H363.063V42.664L299.063,0h-85.344l-64,42.664V128H42.282l0.781,341.344    c0,23.562,19.094,42.656,42.656,42.656h341.344c23.562,0,42.656-19.094,42.656-42.656L468.953,128z M320.391,39.859l21.328,14.227    V128h-21.328V39.859z M213.719,21.336h85.344v21.328h-85.344V21.336z M213.719,64h85.344v64h-85.344V64z M171.063,54.086    l21.328-14.227V128h-21.328V54.086z M427.063,490.656H85.719c-11.766,0-21.328-9.562-21.328-21.312v-0.031v-0.031l-0.719-319.945    h384l0.719,320.039C448.375,481.125,438.813,490.656,427.063,490.656z" fill="#fa6262"/>
	</g>
</g>
<g>
	<g>
		<path d="M289.406,217.274l-60.562,107.664l-31.875-54l-79.25,134.156h66.031h92.453h118.859L289.406,217.274z M195.75,383.766    h-40.656l41.875-70.875l19.797,33.516L195.75,383.766z M220.234,383.766l69.172-122.977l69.172,122.977H220.234z" fill="#fa6262"/>
	</g>
</g>
<g>
</g>
<g>
</g>
<g>
</g>
<g>
</g>
<g>
</g>
<g>
</g>
<g>
</g>
<g>
</g>
<g>
</g>
<g>
</g>
<g>
</g>
<g>
</g>
<g>
</g>
<g>
</g>
<g>
</g>
</svg>
