<?xml version="1.0" encoding="iso-8859-1"?>
<!-- Generator: Adobe Illustrator 19.0.0, SVG Export Plug-In . SVG Version: 6.00 Build 0)  -->
<svg xmlns="http://www.w3.org/2000/svg" xmlns:xlink="http://www.w3.org/1999/xlink" version="1.1" id="Capa_1" x="0px" y="0px" viewBox="0 0 480.852 480.852" style="enable-background:new 0 0 480.852 480.852;" xml:space="preserve" width="512px" height="512px">
<g>
	<g>
		<path d="M347.786,171.36v-2.08c-2.05-27.072-24.61-47.994-51.76-48c-3.965,0.062-7.91,0.572-11.76,1.52    c-16.87-31.061-55.726-42.564-86.786-25.694c-10.867,5.902-19.792,14.827-25.694,25.694c-3.928-0.966-7.955-1.476-12-1.52    c-28.701,0.044-51.956,23.299-52,52c0,1.36,0,2.64,0,4c-17.673,13.255-21.255,38.327-8,56c7.554,10.072,19.41,16,32,16h58.48    l22,58.8c1.172,3.136,4.172,5.211,7.52,5.2h48c40.529,0.041,74.591-30.435,79.04-70.72v-2.88    c10.607-8.277,16.853-20.946,16.96-34.4C363.78,192.153,357.913,179.714,347.786,171.36z M225.306,297.28l-18-48h22.96l18,48    H225.306z M267.786,297.28h-2.48l-6-16h50.64C298.331,291.603,283.326,297.297,267.786,297.28z M322.906,265.28h-69.6l-6-16h72.48    c3.311-0.008,6.612-0.384,9.84-1.12C328.191,254.151,325.93,259.913,322.906,265.28z M343.029,220.838    c-5.188,7.763-13.905,12.43-23.242,12.442h-76c-15.464,0-28-12.536-28-28s12.536-28,28-28v-16c-24.282,0.044-43.956,19.718-44,44    c-0.028,10.227,3.54,20.138,10.08,28h-22.08c0-22.091-17.909-40-40-40v16c13.255,0,24,10.745,24,24h-40c-13.255,0-24-10.745-24-24    s10.745-24,24-24v-16c-2.687-0.003-5.367,0.265-8,0.8c1.662-18.623,17.303-32.874,36-32.8c4.432-0.016,8.828,0.798,12.96,2.4    c4.944,1.971,9.395,5.002,13.04,8.88c-3.91,6.204-5.99,13.386-6,20.72h16c0-13.255,10.745-24,24-24v-16    c-8.328,0.031-16.438,2.659-23.2,7.52c-2.969-3.06-6.3-5.747-9.92-8c13.675-22.71,43.171-30.035,65.881-16.36    c14.336,8.632,23.141,24.107,23.239,40.84h16c-0.009-5.237-0.681-10.452-2-15.52c1.984-0.319,3.99-0.479,6-0.48    c19.851,0,35.956,16.069,36,35.92v2.16c-0.004,2.661,1.315,5.15,3.52,6.64C348.164,190.592,351.621,207.98,343.029,220.838z" fill="#fa6262"/>
	</g>
</g>
<g>
	<g>
		<path d="M275.786,169.28v16c13.255,0,24,10.745,24,24h16C315.786,187.189,297.878,169.28,275.786,169.28z" fill="#fa6262"/>
	</g>
</g>
<g>
	<g>
		<path d="M461.066,33.28c-12.932-2.218-23.062-12.348-25.28-25.28c0-4.418-3.582-8-8-8s-8,3.582-8,8    c-2.218,12.932-12.348,23.062-25.28,25.28c-4.418,0-8,3.582-8,8s3.582,8,8,8c12.932,2.218,23.062,12.348,25.28,25.28    c0,4.418,3.582,8,8,8s8-3.582,8-8c2.218-12.932,12.348-23.062,25.28-25.28c4.418,0,8-3.582,8-8S465.485,33.28,461.066,33.28z     M427.786,52.72c-3.104-4.463-6.977-8.336-11.44-11.44c4.463-3.104,8.336-6.977,11.44-11.44c3.104,4.463,6.977,8.336,11.44,11.44    C434.764,44.384,430.89,48.257,427.786,52.72z" fill="#fa6262"/>
	</g>
</g>
<g>
	<g>
		<path d="M85.066,401.28c-12.932-2.218-23.062-12.348-25.28-25.28c0-4.418-3.582-8-8-8s-8,3.582-8,8    c-2.218,12.932-12.348,23.062-25.28,25.28c-3.912,0.634-6.771,4.037-6.72,8c-0.051,3.963,2.808,7.366,6.72,8    c12.932,2.218,23.062,12.348,25.28,25.28c0,4.418,3.582,8,8,8s8-3.582,8-8c2.218-12.932,12.348-23.062,25.28-25.28    c4.418,0,8-3.582,8-8S89.485,401.28,85.066,401.28z M51.786,420.72c-3.104-4.463-6.977-8.336-11.44-11.44    c4.463-3.104,8.336-6.977,11.44-11.44c3.104,4.463,6.977,8.336,11.44,11.44C58.764,412.384,54.89,416.257,51.786,420.72z" fill="#fa6262"/>
	</g>
</g>
<g>
	<g>
		<path d="M384.826,297.28c-2.72,4.32-5.52,8.56-8.56,12.72l12.88,9.44c3.28-4.48,6.64-9.12,9.28-14.16L384.826,297.28z" fill="#fa6262"/>
	</g>
</g>
<g>
	<g>
		<path d="M366.666,322c-3.28,3.76-6.88,7.52-10.56,11.12l11.2,11.44c4-3.84,7.84-7.92,11.44-12.08L366.666,322z" fill="#fa6262"/>
	</g>
</g>
<g>
	<g>
		<path d="M420.106,145.36l-15.68,4.24c1.44,4.96,2.64,9.92,3.68,14.88l16-3.12C422.986,155.92,421.706,150.48,420.106,145.36z" fill="#fa6262"/>
	</g>
</g>
<g>
	<g>
		<path d="M398.586,269.92c-1.92,4.64-4,9.36-6.32,14l14.32,7.12c2.48-4.96,5.2-9.76,6.8-15.2L398.586,269.92z" fill="#fa6262"/>
	</g>
</g>
<g>
	<g>
		<path d="M344.026,38.48l-9.28,13.04c4.16,2.96,8,6.16,12.08,9.44l10.32-12.24C352.986,45.2,348.586,41.76,344.026,38.48z" fill="#fa6262"/>
	</g>
</g>
<g>
	<g>
		<path d="M390.426,85.6l-12.64,9.12c2.96,4.16,5.84,8.48,8,12.88l13.76-8C396.746,94.8,393.706,90.16,390.426,85.6z" fill="#fa6262"/>
	</g>
</g>
<g>
	<g>
		<path d="M369.386,60.08l-11.36,11.28c3.68,3.6,7.12,7.36,10.4,11.28l12.24-10.32C377.146,68.08,373.306,64.32,369.386,60.08z" fill="#fa6262"/>
	</g>
</g>
<g>
	<g>
		<path d="M407.866,114l-14.4,7.28c2.16,4.64,4.24,9.36,6.08,14.08l14.88-6.08C412.506,124.16,410.266,118.96,407.866,114z" fill="#fa6262"/>
	</g>
</g>
<g>
	<g>
		<path d="M407.226,240.64c-1.04,4.96-2.4,10-3.84,14.8l15.28,4.72c1.92-5.28,3.36-10.88,4.56-16.16L407.226,240.64z" fill="#fa6262"/>
	</g>
</g>
<g>
	<g>
		<path d="M426.426,177.76l-16,1.84c0.64,5.04,0.96,10.24,1.2,15.36l16-0.56C427.786,188.8,427.066,183.28,426.426,177.76z" fill="#fa6262"/>
	</g>
</g>
<g>
	<g>
		<path d="M411.786,210.24c0,5.12-0.72,10.24-1.36,15.28l16,2.08c0.32-5.44,0.88-11.04,1.36-16.56L411.786,210.24z" fill="#fa6262"/>
	</g>
</g>
<g>
	<g>
		<path d="M43.786,212l-16,0.96c0,5.52,0.88,11.12,1.68,16.56l16-2.24C44.906,222.24,44.426,217.28,43.786,212z" fill="#fa6262"/>
	</g>
</g>
<g>
	<g>
		<path d="M315.786,21.44l-6.96,14.4c4.56,2.24,9.12,4.72,13.44,7.28l8-13.76C325.386,26.56,320.426,23.92,315.786,21.44z" fill="#fa6262"/>
	</g>
</g>
<g>
	<g>
		<path d="M48.346,242.48l-15.6,3.6c1.28,5.36,2.72,10.8,4.4,16l15.28-4.8C50.826,252.4,49.546,247.44,48.346,242.48z" fill="#fa6262"/>
	</g>
</g>
<g>
	<g>
		<path d="M28.746,179.36c-0.4,5.92-0.96,11.36-0.96,16.96h16c0-5.04,0.4-10.24,0.96-15.28L28.746,179.36z" fill="#fa6262"/>
	</g>
</g>
<g>
	<g>
		<path d="M71.706,298.72l-13.6,8.48c2.88,4.64,6.08,9.28,9.44,13.76l12.8-9.6C77.306,307.28,74.346,303.36,71.706,298.72z" fill="#fa6262"/>
	</g>
</g>
<g>
	<g>
		<path d="M35.466,146.96c-1.68,5.36-3.04,10.8-4.08,16.24l16,3.04c0.96-5.04,2.16-10,3.52-14.96L35.466,146.96z" fill="#fa6262"/>
	</g>
</g>
<g>
	<g>
		<path d="M90.026,323.28l-12,10.56c3.68,4.16,8,8,11.6,12l11.04-11.52C96.986,330.8,93.386,327.04,90.026,323.28z" fill="#fa6262"/>
	</g>
</g>
<g>
	<g>
		<path d="M46.906,115.84c-2.4,5.44-4.56,10.16-6.48,15.28l14.96,5.68c1.867-4.8,3.867-9.52,6-14.16L46.906,115.84z" fill="#fa6262"/>
	</g>
</g>
<g>
	<g>
		<path d="M112.186,344.08l-10.08,12.8c4.24,3.44,8.8,6.8,13.36,9.92l8.96-13.52C120.266,350.4,116.426,347.28,112.186,344.08z" fill="#fa6262"/>
	</g>
</g>
<g>
	<g>
		<path d="M137.466,361.6l-7.84,14c4.8,2.64,9.76,5.2,14.88,7.52l6.64-14.48C146.506,366.48,141.946,364.16,137.466,361.6z" fill="#fa6262"/>
	</g>
</g>
<g>
	<g>
		<path d="M319.546,360.56c-4.4,2.48-8.96,4.88-13.6,7.12l6.88,14.72c5.04-2.4,10-5.04,14.72-8L319.546,360.56z" fill="#fa6262"/>
	</g>
</g>
<g>
	<g>
		<path d="M57.626,271.52l-14.72,6.08c2.08,5.12,4.4,10.24,6.96,15.12l14.24-7.28C61.813,280.907,59.653,276.267,57.626,271.52z" fill="#fa6262"/>
	</g>
</g>
<g>
	<g>
		<path d="M63.386,86.96c-2.96,4.56-5.92,9.36-8.72,14.08l13.84,8c2.56-4.32,5.36-8.72,8-12.88L63.386,86.96z" fill="#fa6262"/>
	</g>
</g>
<g>
	<g>
		<path d="M84.906,61.36c-3.92,4-8,8-11.2,12.4l12.32,10.16c3.28-3.84,6.72-7.68,10.32-11.36L84.906,61.36z" fill="#fa6262"/>
	</g>
</g>
<g>
	<g>
		<path d="M110.026,39.6c-4.48,3.28-8.8,6.72-13.04,10.32l10.8,12.16c3.84-3.36,8-6.56,12-9.6L110.026,39.6z" fill="#fa6262"/>
	</g>
</g>
<g>
	<g>
		<path d="M201.946,2.96c-5.537,0.654-11.038,1.589-16.48,2.8l3.44,15.6c4.96-1.04,10-1.92,15.04-2.56L201.946,2.96z" fill="#fa6262"/>
	</g>
</g>
<g>
	<g>
		<path d="M169.386,9.92c-5.28,1.6-10.56,3.52-16,5.52l6,14.88c4.72-1.84,9.6-3.6,14.4-5.04L169.386,9.92z" fill="#fa6262"/>
	</g>
</g>
<g>
	<g>
		<path d="M218.506,1.28l0.72,16c5.12,0,10.24,0,15.36,0l0.56-16C229.626,1.28,224.026,1.28,218.506,1.28z" fill="#fa6262"/>
	</g>
</g>
<g>
	<g>
		<path d="M284.346,9.28l-4.48,15.28c4.88,1.52,9.76,3.12,14.48,4.96l5.44-14.72C294.986,12.8,289.706,10.96,284.346,9.28z" fill="#fa6262"/>
	</g>
</g>
<g>
	<g>
		<path d="M251.786,2.72l-1.92,16c5.04,0.64,10.08,1.44,15.12,2.48l3.2-16C262.746,4.24,257.226,3.36,251.786,2.72z" fill="#fa6262"/>
	</g>
</g>
<g>
	<g>
		<path d="M138.426,22.24c-4.88,2.48-9.76,5.2-14.56,8l8,13.68c4.373-2.667,8.853-5.147,13.44-7.44L138.426,22.24z" fill="#fa6262"/>
	</g>
</g>
<g>
	<g>
		<path d="M344.746,343.36c-3.92,3.2-8,6.32-12.24,9.2l9.12,13.2c4.56-3.2,9.04-6.56,13.28-10.08L344.746,343.36z" fill="#fa6262"/>
	</g>
</g>
<g>
	<g>
		<path d="M362.499,114.996C354.68,102.776,345.236,91.675,334.426,82C268.81,22.814,167.638,28.027,108.452,93.643    s-53.973,166.788,11.643,225.974c6.609,5.961,13.704,11.361,21.212,16.143c14.101,9.085,22.581,24.746,22.48,41.52v40    c0.019,14.853,10.256,27.741,24.72,31.12c4.173,21.694,25.141,35.897,46.835,31.725c16.068-3.091,28.634-15.656,31.725-31.725    c14.464-3.379,24.701-16.267,24.72-31.12v-40c-0.149-16.642,8.208-32.208,22.16-41.28    C388.382,288.379,410.12,189.432,362.499,114.996z M227.786,465.28c-10.175,0.005-19.248-6.407-22.64-16h45.28    C247.035,458.873,237.962,465.285,227.786,465.28z M259.786,433.28h-64c-8.837,0-16-7.163-16-16h96    C275.786,426.117,268.623,433.28,259.786,433.28z M275.786,401.28h-96v-16h96V401.28z M335.027,297.256    c-8.693,9.711-18.664,18.196-29.641,25.224h-0.08c-16.241,10.424-26.911,27.62-29.04,46.8h-16.48v-40h-16v40h-32v-48h-16v48    h-16.48c-2.257-19.262-13.032-36.496-29.36-46.96c-66.823-43.123-86.035-132.252-42.912-199.074    c23.286-36.084,61.463-59.891,104.112-64.926c5.523-0.657,11.078-1.004,16.64-1.04c35.448-0.176,69.684,12.891,96,36.64    C383.04,146.966,388.073,238.003,335.027,297.256z" fill="#fa6262"/>
	</g>
</g>
<g>
</g>
<g>
</g>
<g>
</g>
<g>
</g>
<g>
</g>
<g>
</g>
<g>
</g>
<g>
</g>
<g>
</g>
<g>
</g>
<g>
</g>
<g>
</g>
<g>
</g>
<g>
</g>
<g>
</g>
</svg>
