<?xml version="1.0" encoding="iso-8859-1"?>
<!-- Generator: Adobe Illustrator 19.0.0, SVG Export Plug-In . SVG Version: 6.00 Build 0)  -->
<svg xmlns="http://www.w3.org/2000/svg" xmlns:xlink="http://www.w3.org/1999/xlink" version="1.1" id="Capa_1" x="0px" y="0px" viewBox="0 0 424.629 424.629" style="enable-background:new 0 0 424.629 424.629;" xml:space="preserve" width="512px" height="512px">
<g>
	<g>
		<path d="M343,223.508l-54.6-52.6l29.5-70.3c2.1-5.1-0.3-11-5.4-13.1c-2.8-1.2-6-1-8.7,0.5l-66.1,36.2l-56.3-50.5    c-4.1-3.7-10.4-3.3-14.1,0.8c-2,2.3-2.9,5.4-2.4,8.4l13.3,75.2l-64.8,38.8c-4.7,2.8-6.3,9-3.4,13.7c1.6,2.6,4.2,4.4,7.2,4.8    l39.3,5.4l-148.1,148c-11.2,11.2-11.2,29.3,0,40.5s29.3,11.2,40.5,0.1c0,0,0,0,0.1-0.1l150.4-150.5l9,41.4    c0.9,4.2,4.4,7.3,8.6,7.8c0.4,0,0.8,0.1,1.2,0.1c3.8,0,7.4-2.2,9-5.7l32.9-68.7l75,6.9c5.5,0.5,10.4-3.5,10.9-9    C346.3,228.608,345.2,225.608,343,223.508z M34.7,395.208c-3.4,3.4-8.8,3.4-12.2,0c-3.4-3.4-3.4-8.8,0-12.2l52.2-52.2l12.2,12.2    L34.7,395.208z M101.1,328.808l-12.2-12.2l92.4-92.4l10.8,1.5l2.2,9.9L101.1,328.808z M255,213.208c-4.2-0.4-8.1,1.9-9.9,5.6    l-23.3,48.7l-11.5-52.9c-0.9-4.1-4.3-7.2-8.4-7.8l-53.8-7.4l46.3-27.7c3.6-2.1,5.4-6.2,4.7-10.3l-9.4-53.5l40.1,35.9    c3.2,2.8,7.8,3.4,11.5,1.3l47.2-25.9l-21.1,50.2c-1.6,3.8-0.7,8.2,2.3,11.1l39,37.6L255,213.208z" fill="#fa6262"/>
	</g>
</g>
<g>
	<g>
		<path d="M322.9,320.308l-27.9-40.7c-3-4.6-9.2-5.9-13.8-2.9c-4.6,3-5.9,9.2-2.9,13.8c0.1,0.1,0.2,0.2,0.2,0.4l27.9,40.7    c3.1,4.6,9.3,5.7,13.9,2.6C324.9,331.108,326,324.908,322.9,320.308z" fill="#fa6262"/>
	</g>
</g>
<g>
	<g>
		<path d="M247.4,6.908c-5.5,0-10,4.5-10,10v48.2c0,5.5,4.5,10,10,10s10-4.5,10-10v-48.2C257.4,11.408,252.9,6.908,247.4,6.908z" fill="#fa6262"/>
	</g>
</g>
<g>
	<g>
		<path d="M424.3,136.508c-1.4-5.2-6.7-8.4-11.9-7.2l-64.3,16.1c-5.4,1.2-8.7,6.6-7.5,12c1.2,5.4,6.6,8.7,12,7.5    c0.1,0,0.2-0.1,0.3-0.1l64.3-16.1C422.5,147.308,425.7,141.808,424.3,136.508z" fill="#fa6262"/>
	</g>
</g>
<g>
	<g>
		<path d="M115.4,123.208l-47.7-8c-5.5-0.9-10.6,2.8-11.4,8.3c-0.9,5.4,2.7,10.5,8,11.5l47.7,8c0.6,0.1,1.1,0.1,1.7,0.1    c5.5,0,10-4.5,10-10C123.7,128.208,120.2,124.108,115.4,123.208z" fill="#fa6262"/>
	</g>
</g>
<g>
</g>
<g>
</g>
<g>
</g>
<g>
</g>
<g>
</g>
<g>
</g>
<g>
</g>
<g>
</g>
<g>
</g>
<g>
</g>
<g>
</g>
<g>
</g>
<g>
</g>
<g>
</g>
<g>
</g>
</svg>
